# xmcd
#
# Track frame offsets:
# 150
# 14417
# 30547
# 40505
# 59146
# 71639
# 88649
# 108046
# 126539
# 143907
#
# Disc length: 2067 seconds
#
#
# Revision: 0
# Processed by: cddbd v1.5.1PL0 Copyright (c) Steve Scherf et al.
# Submitted via: FreeRIP 2.92 
#
DISCID=8908110a
DTITLE=Randy Garibay - Barbacoa Blues
DYEAR=1997
DGENRE=Blues
TTITLE0=Chicano Blues Man
TTITLE1=Barbacoa Blues
TTITLE2=Too Close to the Border
TTITLE3=What did you Think
TTITLE4=I Can't Stop Loving You Baby
TTITLE5=Viuda Negra (Black Widow Woman)
TTITLE6=Two Steps from the Blues
TTITLE7=El Chupacabra
TTITLE8=Tell Me Why
TTITLE9=Curandera
EXTD=
EXTT0=
EXTT1=
EXTT2=
EXTT3=
EXTT4=
EXTT5=
EXTT6=
EXTT7=
EXTT8=
EXTT9=
PLAYORDER=
